# xmcd CD database file
#
# Track frame offsets:
#	150
#	14495
#	30689
#	45212
#	56197
#	73745
#	88484
#	103377
#	120688
#	144047
#	155661
#	172239
#	192007
#	207251
#	222808
#	238117
#	254041
#	269961
#	283869
#	303537
#
# Disc length: 4250 seconds
#
# Revision: 2
# Processed by: cddbd v1.5.2PL0 Copyright (c) Steve Scherf et al.
# Submitted via: Feurio! 1.68 - http://www.feurio.com
#
DISCID=43109814
DTITLE=Various Artist - Viva Express (Die 40 gößten kölschen Hits) CD1
DYEAR=2004
DGENRE=National Folk
TTITLE0=Höhner - Viva Colonia
TTITLE1=Bläck Fööss  - Mer bruche keiner
TTITLE2=Paveier - Beinah, beinah
TTITLE3=Höhner - Echte Fründe
TTITLE4=Bläck Fööss - Bye Bye My Love
TTITLE5=Et Fussich Julche - Mir sin kölsche Mädchen
TTITLE6=Hans Knipp - Mir schenke d'r Ahl e paar Blömchen
TTITLE7=Bläck Fööss - Unsere Stammbaum
TTITLE8=Paveier - Ich han die Musik bestellt
TTITLE9=Räuber - Kölsche Junge bütze joot
TTITLE10=Höhner - Kumm loss mer fiere
TTITLE11=Bläck Fööss - Drink doch eine met
TTITLE12=W. Jungeburth - Eimol Prinz zo sinn in Kölle am Rhing
TTITLE13=Fritz Weber - Der schmucke Prinz
TTITLE14=Räuber - Op dem Maat
TTITLE15=Paveier -  Jo, de Mädchen he us Kölle
TTITLE16=Räuber - Kleine Mädchen müssen früher schlafen gehn
TTITLE17=Höhner -  Nemm mich su wie ich ben
TTITLE18=Bläck Fööss - Du ... bes die Stadt
TTITLE19=Willi Ostermann - Och wat wor dat fröher schön doch en Colonia
EXTD=Karnevalsmusik aus Köln
EXTT0=
EXTT1=
EXTT2=
EXTT3=
EXTT4=
EXTT5=
EXTT6=
EXTT7=
EXTT8=
EXTT9=
EXTT10=
EXTT11=
EXTT12=
EXTT13=
EXTT14=
EXTT15=
EXTT16=
EXTT17=
EXTT18=
EXTT19=
PLAYORDER=
